<svg width="144" height="40" viewBox="0 0 144 40" fill="none" xmlns="http://www.w3.org/2000/svg">
<path d="M143.764 12.542V15.8812H117.556V12.542H143.764Z" fill="url(#paint0_linear_6562_39384)"/>
<path d="M0.235352 15.56V12.2305H26.4439V15.56H0.235352Z" fill="url(#paint1_linear_6562_39384)"/>
<path d="M1.08301 24.867C1.08301 20.5834 3.67955 18.5098 7.49171 18.5098C11.333 18.5098 13.9004 20.6224 13.9004 24.867H9.57283C9.57283 23.0659 8.70732 22.5013 7.49171 22.5013C6.2761 22.5013 5.41058 23.1049 5.41058 24.867V27.0088H12.1402V30.864H5.42031V39.1391H1.08301V24.867Z" fill="white"/>
<path d="M14.7158 29.8029C14.7158 24.2148 18.8781 20.1064 24.7714 20.1064C30.6646 20.1064 34.8269 24.2148 34.8269 29.8029C34.8269 35.3911 30.6646 39.4994 24.7714 39.4994C18.8781 39.4994 14.7158 35.3911 14.7158 29.8029ZM30.0811 29.8029C30.0811 26.6681 27.9708 24.3803 24.7714 24.3803C21.5621 24.3803 19.4616 26.6584 19.4616 29.8029C19.4616 32.9377 21.5719 35.2256 24.7714 35.2256C27.9708 35.2158 30.0811 32.9377 30.0811 29.8029Z" fill="white"/>
<path d="M36.7842 29.8029C36.7842 24.2148 40.9464 20.1064 46.8397 20.1064C52.733 20.1064 56.8952 24.2148 56.8952 29.8029C56.8952 35.3911 52.733 39.4994 46.8397 39.4994C40.9464 39.4994 36.7842 35.3911 36.7842 29.8029ZM52.1495 29.8029C52.1495 26.6681 50.0392 24.3803 46.8397 24.3803C43.6402 24.3803 41.5299 26.6584 41.5299 29.8029C41.5299 32.9377 43.6402 35.2256 46.8397 35.2256C50.0392 35.2256 52.1495 32.9377 52.1495 29.8029Z" fill="white"/>
<path d="M62.9228 24.7504H57.7783V20.4668H72.7644V24.7504H67.5907V39.1296H62.9131V24.7504H62.9228Z" fill="white"/>
<path d="M75.4873 20.4668H84.4731C88.1686 20.4668 90.0163 22.521 90.0163 25.3735C90.0163 27.2037 89.1799 28.6251 87.7309 29.3942V29.4526C89.7245 30.1633 90.8818 31.8183 90.8818 34.0185C90.8818 36.9586 89.0049 39.1296 85.2219 39.1296H75.4873V20.4668ZM83.6854 27.8073C84.9302 27.8073 85.3872 27.1258 85.3872 26.2983C85.3872 25.4416 85.0371 24.7601 83.6854 24.7601H80.165V27.817H83.6854V27.8073ZM84.2689 34.846C85.6304 34.846 86.0874 34.1061 86.0874 33.191C86.0874 32.2759 85.4845 31.5068 84.2689 31.5068H80.165V34.846H84.2689Z" fill="white"/>
<path d="M93.1006 28.2842C93.1006 23.2023 96.018 20.0967 101.386 20.0967C106.783 20.0967 109.73 23.2023 109.73 28.2842V39.1295H105.052V33.8236H97.6616V39.1295H93.1006V28.2842ZM105.062 29.8321V28.2939C105.062 25.7238 103.934 24.39 101.367 24.39C98.8285 24.39 97.6713 25.7335 97.6713 28.2939V29.8321H105.062Z" fill="white"/>
<path d="M113.171 20.4668H117.849V34.846H126.776V39.1296H113.171V20.4668Z" fill="white"/>
<path d="M129.47 20.4668H134.147V34.846H143.075V39.1296H129.47V20.4668Z" fill="white"/>
<path d="M33.3962 13.7693L32.5988 15.9598H28.4365L34.5243 0.782227H37.5779L43.5976 15.95H39.3965L38.6574 13.7596H33.3962V13.7693ZM34.466 10.6929H37.6363L36.0803 5.50391H36.0608H36.0219L34.466 10.6929Z" fill="#E02414"/>
<path d="M45.1143 0.782227H53.3901V4.18963H48.8194V6.76952H53.2248V10.1769H48.8194V15.9598H45.1143V0.782227Z" fill="#E02414"/>
<path d="M55.4326 0.782227H60.227C62.8916 0.782227 63.9127 1.11323 64.8949 1.8726C66.1397 2.85587 66.7621 4.45248 66.7621 6.01015C66.7621 7.7528 65.8577 10.3132 62.9889 10.7903L67.1025 15.9598H62.6777L59.1767 11.0628H59.1378V15.9598H55.4326V0.782227ZM59.1378 8.41481H60.509C62.7846 8.41481 63.0472 6.9837 63.0472 6.2438C63.0472 4.87111 62.0455 4.18963 60.5479 4.18963H59.1378V8.41481Z" fill="#E02414"/>
<path d="M68.7666 0.782227H72.6371V15.95H68.7666V0.782227Z" fill="#E02414"/>
<path d="M91.4834 16.2227C91.2014 16.2422 90.8902 16.2617 90.5206 16.2617C88.4298 16.2617 87.3698 15.5023 86.9613 15.0739C85.2011 16.1643 83.7035 16.2617 82.7018 16.2617C77.8102 16.2617 74.6982 12.3091 74.6982 8.45385C74.6982 4.47206 77.7713 0.5 82.6629 0.5C87.5545 0.5 90.754 4.3747 90.754 8.2494C90.754 10.7709 89.8982 12.0462 89.5092 12.6401C89.9177 13.0295 90.5984 13.1755 91.1722 13.1755C91.2792 13.1755 91.357 13.1755 91.5028 13.1561V16.2227H91.4834ZM86.8738 8.2494C86.8738 5.56243 84.9288 3.9074 82.6727 3.9074C80.6012 3.9074 78.9869 5.31904 78.5785 7.74316C79.23 7.48031 79.8233 7.22718 80.7277 7.22718C82.3615 7.22718 84.4329 8.06443 86.3584 10.4301C86.6501 9.91416 86.8349 9.23268 86.8738 8.2494ZM80.3192 10.0505C79.726 10.0505 79.3759 10.1575 78.9675 10.2938C79.726 12.0949 81.4084 12.8737 82.6532 12.8543C83.2853 12.8737 83.898 12.7277 84.4134 12.4648C83.7813 11.7152 82.5073 10.0505 80.3192 10.0505Z" fill="#E02414"/>
<path d="M96.8714 0.782227V9.94327C96.8714 10.9655 96.9298 12.8347 98.8359 12.8347C100.761 12.8347 100.761 11.1505 100.761 9.94327V0.782227H104.632V9.94327C104.632 12.4842 104.078 13.6135 103.115 14.5968C102.133 15.5996 100.761 16.2324 98.8748 16.2324C97.7661 16.2324 95.7628 15.9695 94.5083 14.6163C93.2635 13.2436 92.9912 12.1727 92.9912 9.94327V0.782227H96.8714Z" fill="#E02414"/>
<path d="M107.296 0.782227H115.718V4.18963H111.001V6.5456H115.572V9.953H111.001V12.5524H115.708V15.9598H107.286V0.782227H107.296Z" fill="#E02414"/>
<defs>
<linearGradient id="paint0_linear_6562_39384" x1="117.554" y1="14.2125" x2="143.766" y2="14.2125" gradientUnits="userSpaceOnUse">
<stop offset="0.0644844" stop-color="#DF251A"/>
<stop offset="0.1236" stop-color="#E02D1A"/>
<stop offset="0.2174" stop-color="#E44419"/>
<stop offset="0.3341" stop-color="#E96A17"/>
<stop offset="0.468" stop-color="#F19D16"/>
<stop offset="0.5696" stop-color="#F7C914"/>
<stop offset="0.6001" stop-color="#ECC716"/>
<stop offset="0.6544" stop-color="#CDC01B"/>
<stop offset="0.7261" stop-color="#9CB624"/>
<stop offset="0.8125" stop-color="#58A730"/>
<stop offset="0.9104" stop-color="#039540"/>
<stop offset="0.9131" stop-color="#009440"/>
</linearGradient>
<linearGradient id="paint1_linear_6562_39384" x1="0.235352" y1="13.8943" x2="26.4472" y2="13.8943" gradientUnits="userSpaceOnUse">
<stop offset="0.064009" stop-color="#DF251A"/>
<stop offset="0.1232" stop-color="#E02D1A"/>
<stop offset="0.2171" stop-color="#E44419"/>
<stop offset="0.3339" stop-color="#E96A17"/>
<stop offset="0.4679" stop-color="#F19D16"/>
<stop offset="0.5696" stop-color="#F7C914"/>
<stop offset="0.6001" stop-color="#ECC716"/>
<stop offset="0.6544" stop-color="#CDC01B"/>
<stop offset="0.7261" stop-color="#9CB624"/>
<stop offset="0.8125" stop-color="#58A730"/>
<stop offset="0.9104" stop-color="#039540"/>
<stop offset="0.9131" stop-color="#009440"/>
</linearGradient>
</defs>
</svg>
